<svg xmlns="http://www.w3.org/2000/svg" version="1.0" width="150" height="150" viewBox="0 0 256.000000 256.000000" preserveAspectRatio="xMidYMid meet">
<g transform="translate(0.000000,256.000000) scale(0.100000,-0.100000)" fill="silver" stroke="none">
<path d="M915 2503 c-117 -26 -265 -106 -265 -142 0 -11 9 -25 20 -31 16 -9 32 -3 87 30 37 22 90 47 117 55 205 61 423 -8 552 -176 25 -32 50 -59 56 -59 7 0 34 16 62 35 177 121 423 57 522 -136 32 -64 44 -180 25 -255 -16 -63 -7 -71 92 -76 129 -7 211 -60 267 -170 26 -52 30 -72 30 -137 0 -91 -27 -158 -87 -218 -66 -66 -122 -87 -235 -88 -53 0 -100 -4 -104 -8 -5 -5 -9 -41 -10 -82 -6 -308 -376 -463 -602 -251 -27 25 -58 46 -68 46 -12 0 -30 -17 -47 -45 -16 -24 -52 -66 -80 -91 -247 -223 -640 -94 -713 234 -10 45 -14 92 -10 120 3 26 2 53 -3 60 -5 9 -36 15 -89 17 -144 5 -263 81 -321 204 -23 49 -26 69 -26 156 0 85 4 107 23 147 62 123 173 197 310 206 42 2 83 9 90 14 7 7 12 36 12 77 0 81 20 157 60 233 30 58 31 82 4 92 -28 11 -50 -12 -83 -82 -30 -66 -60 -180 -61 -228 0 -19 -9 -23 -67 -33 -350 -59 -491 -464 -253 -724 74 -81 193 -137 293 -137 l37 0 0 -52 c1 -203 155 -406 358 -468 71 -22 197 -26 272 -9 85 19 170 69 240 138 l66 67 45 -33 c129 -96 312 -108 463 -31 57 29 138 110 171 169 31 57 55 138 55 185 l0 32 78 3 c103 5 189 46 261 124 70 77 95 146 96 260 0 80 -4 97 -31 155 -56 118 -160 197 -291 222 l-61 11 5 56 c16 172 -88 345 -254 424 -64 30 -75 32 -178 32 -103 0 -114 -2 -179 -33 l-69 -32 -72 69 c-117 111 -246 162 -405 160 -47 -1 -94 -3 -105 -6z"/>
<path d="M1189 2085 c-143 -46 -249 -185 -249 -327 0 -89 46 -138 128 -138 65 0 122 63 122 134 0 36 45 84 86 92 69 13 124 -35 124 -108 0 -45 -22 -74 -80 -103 -105 -53 -156 -142 -148 -257 4 -55 8 -64 41 -94 29 -27 45 -34 78 -34 73 0 129 52 129 122 0 28 6 35 38 50 96 44 170 147 191 264 28 153 -58 313 -206 384 -61 30 -186 37 -254 15z m225 -84 c170 -76 219 -304 95 -444 -21 -25 -60 -55 -84 -67 -63 -30 -75 -45 -75 -91 0 -40 -26 -79 -53 -79 -35 0 -51 27 -50 83 2 88 26 122 122 173 116 62 144 190 63 286 -33 39 -78 58 -138 58 -91 0 -166 -65 -180 -156 -10 -69 -46 -93 -86 -57 -22 20 -23 53 -2 123 22 75 107 160 184 183 65 20 144 15 204 -12z"/>
<path d="M1233 1201 c-63 -39 -80 -113 -40 -172 76 -113 242 -51 224 84 -12 86 -111 134 -184 88z m108 -83 c13 -24 3 -55 -22 -69 -43 -23 -87 22 -66 68 16 36 69 37 88 1z"/>
<path d="M1376 505 c-61 -23 -102 -60 -130 -117 -79 -159 30 -338 207 -338 55 0 77 12 77 41 0 25 -15 32 -74 33 -68 2 -118 33 -147 92 -86 179 177 319 278 147 22 -38 25 -51 19 -96 -12 -90 -11 -99 6 -110 40 -26 88 81 73 160 -27 144 -180 237 -309 188z"/>
</g>
</svg>